# Blender v2.70 (sub 0) OBJ File: 'cylinders.blend'
# www.blender.org
mtllib cylinders.mtl
o Cylinder
v 0.000000 -100000.000000 -0.100000
v 0.000000 100000.000000 -0.100000
v 0.019509 -100000.000000 -0.098079
v 0.019509 100000.000000 -0.098079
v 0.038268 -100000.000000 -0.092388
v 0.038268 100000.000000 -0.092388
v 0.055557 -100000.000000 -0.083147
v 0.055557 100000.000000 -0.083147
v 0.070711 -100000.000000 -0.070711
v 0.070711 100000.000000 -0.070711
v 0.083147 -100000.000000 -0.055557
v 0.083147 100000.000000 -0.055557
v 0.092388 -100000.000000 -0.038268
v 0.092388 100000.000000 -0.038268
v 0.098079 -100000.000000 -0.019509
v 0.098079 100000.000000 -0.019509
v 0.100000 -100000.000000 -0.000000
v 0.100000 100000.000000 -0.000000
v 0.098079 -100000.000000 0.019509
v 0.098079 100000.000000 0.019509
v 0.092388 -100000.000000 0.038268
v 0.092388 100000.000000 0.038268
v 0.083147 -100000.000000 0.055557
v 0.083147 100000.000000 0.055557
v 0.070711 -100000.000000 0.070711
v 0.070711 100000.000000 0.070711
v 0.055557 -100000.000000 0.083147
v 0.055557 100000.000000 0.083147
v 0.038268 -100000.000000 0.092388
v 0.038268 100000.000000 0.092388
v 0.019509 -100000.000000 0.098079
v 0.019509 100000.000000 0.098079
v -0.000000 -100000.000000 0.100000
v -0.000000 100000.000000 0.100000
v -0.019509 -100000.000000 0.098079
v -0.019509 100000.000000 0.098079
v -0.038268 -100000.000000 0.092388
v -0.038268 100000.000000 0.092388
v -0.055557 -100000.000000 0.083147
v -0.055557 100000.000000 0.083147
v -0.070711 -100000.000000 0.070711
v -0.070711 100000.000000 0.070711
v -0.083147 -100000.000000 0.055557
v -0.083147 100000.000000 0.055557
v -0.092388 -100000.000000 0.038268
v -0.092388 100000.000000 0.038268
v -0.098079 -100000.000000 0.019509
v -0.098079 100000.000000 0.019509
v -0.100000 -100000.000000 -0.000000
v -0.100000 100000.000000 -0.000000
v -0.098079 -100000.000000 -0.019509
v -0.098079 100000.000000 -0.019509
v -0.092388 -100000.000000 -0.038268
v -0.092388 100000.000000 -0.038268
v -0.083147 -100000.000000 -0.055557
v -0.083147 100000.000000 -0.055557
v -0.070711 -100000.000000 -0.070711
v -0.070711 100000.000000 -0.070711
v -0.055557 -100000.000000 -0.083147
v -0.055557 100000.000000 -0.083147
v -0.038268 -100000.000000 -0.092388
v -0.038268 100000.000000 -0.092388
v -0.019509 -100000.000000 -0.098079
v -0.019509 100000.000000 -0.098079
vn 0.000000 -0.708029 -0.706168
vn 0.000000 0.689688 -0.724082
vn 0.142796 0.689596 -0.709922
vn 0.146825 -0.707541 -0.691214
vn 0.280068 0.689383 -0.668050
vn 0.287454 -0.706107 -0.647084
vn 0.406354 0.688986 -0.600085
vn 0.415998 -0.703818 -0.575793
vn 0.516831 0.688498 -0.508744
vn 0.527177 -0.700766 -0.480575
vn 0.607166 0.687887 -0.397626
vn 0.616657 -0.697104 -0.365673
vn 0.673971 0.687185 -0.271096
vn 0.681143 -0.693014 -0.236061
vn 0.714713 0.686422 -0.134098
vn 0.718528 -0.688620 -0.097140
vn 0.727866 0.685629 0.008026
vn 0.727866 -0.684164 0.045473
vn 0.713065 0.684866 0.149876
vn 0.709311 -0.679800 0.186285
vn 0.670949 0.684103 0.285928
vn 0.664113 -0.675649 0.319987
vn 0.603229 0.683401 0.411084
vn 0.594378 -0.671926 0.441816
vn 0.512558 0.682821 0.520585
vn 0.503037 -0.668691 0.547502
vn 0.402417 0.682333 0.610279
vn 0.393689 -0.666066 0.633473
vn 0.277047 0.681967 0.676870
vn 0.270394 -0.664144 0.696951
vn 0.141179 0.681722 0.717826
vn 0.137577 -0.662984 0.735862
vn 0.000000 0.681661 0.731651
vn 0.000000 -0.662587 0.748955
vn -0.141179 0.681722 0.717826
vn -0.137577 -0.662984 0.735862
vn -0.277047 0.681967 0.676870
vn -0.270394 -0.664144 0.696951
vn -0.402417 0.682333 0.610279
vn -0.393689 -0.666066 0.633473
vn -0.512558 0.682821 0.520585
vn -0.503037 -0.668691 0.547502
vn -0.603229 0.683401 0.411084
vn -0.594378 -0.671926 0.441816
vn -0.670949 0.684103 0.285928
vn -0.664113 -0.675649 0.319987
vn -0.713065 0.684866 0.149846
vn -0.709311 -0.679800 0.186285
vn -0.727866 0.685629 0.008026
vn -0.727866 -0.684164 0.045473
vn -0.714713 0.686422 -0.134098
vn -0.718528 -0.688620 -0.097140
vn -0.673971 0.687185 -0.271096
vn -0.681143 -0.693014 -0.236061
vn -0.607166 0.687887 -0.397626
vn -0.616657 -0.697104 -0.365673
vn -0.516831 0.688498 -0.508744
vn -0.527177 -0.700766 -0.480575
vn -0.406354 0.688986 -0.600085
vn -0.415998 -0.703818 -0.575793
vn -0.280068 0.689383 -0.668050
vn -0.287454 -0.706107 -0.647084
vn -0.142796 0.689596 -0.709922
vn -0.146825 -0.707541 -0.691214
usemtl Material.001
s 1
f 1//1 2//2 4//3 3//4
f 3//4 4//3 6//5 5//6
f 5//6 6//5 8//7 7//8
f 7//8 8//7 10//9 9//10
f 9//10 10//9 12//11 11//12
f 11//12 12//11 14//13 13//14
f 13//14 14//13 16//15 15//16
f 15//16 16//15 18//17 17//18
f 17//18 18//17 20//19 19//20
f 19//20 20//19 22//21 21//22
f 21//22 22//21 24//23 23//24
f 23//24 24//23 26//25 25//26
f 25//26 26//25 28//27 27//28
f 27//28 28//27 30//29 29//30
f 29//30 30//29 32//31 31//32
f 31//32 32//31 34//33 33//34
f 33//34 34//33 36//35 35//36
f 35//36 36//35 38//37 37//38
f 37//38 38//37 40//39 39//40
f 39//40 40//39 42//41 41//42
f 41//42 42//41 44//43 43//44
f 43//44 44//43 46//45 45//46
f 45//46 46//45 48//47 47//48
f 47//48 48//47 50//49 49//50
f 49//50 50//49 52//51 51//52
f 51//52 52//51 54//53 53//54
f 53//54 54//53 56//55 55//56
f 55//56 56//55 58//57 57//58
f 57//58 58//57 60//59 59//60
f 59//60 60//59 62//61 61//62
f 4//3 2//2 64//63 62//61 60//59 58//57 56//55 54//53 52//51 50//49 48//47 46//45 44//43 42//41 40//39 38//37 36//35 34//33 32//31 30//29 28//27 26//25 24//23 22//21 20//19 18//17 16//15 14//13 12//11 10//9 8//7 6//5
f 63//64 64//63 2//2 1//1
f 61//62 62//61 64//63 63//64
f 1//1 3//4 5//6 7//8 9//10 11//12 13//14 15//16 17//18 19//20 21//22 23//24 25//26 27//28 29//30 31//32 33//34 35//36 37//38 39//40 41//42 43//44 45//46 47//48 49//50 51//52 53//54 55//56 57//58 59//60 61//62 63//64
